<svg xmlns="http://www.w3.org/2000/svg" fill="none" viewBox="0 0 579 150" height="150" width="579">
<path fill="#A3FF00" d="M38.2508 19.1302C38.2508 29.6995 29.6947 38.2556 19.1254 38.2556C8.5561 38.2556 0 29.6995 0 19.1302C0 8.56091 8.5561 0.00481174 19.1254 0.00481174C29.6947 0.00481174 38.2508 8.56091 38.2508 19.1302Z"></path>
<path fill="#A3FF00" d="M103.047 3.03418C89.3142 -3.89219 72.5615 1.62014 65.6112 15.353L18.5167 108.703C11.5903 122.436 17.1026 139.213 30.8355 146.139C44.5684 153.066 61.3451 147.553 68.2715 133.82L115.366 40.4701C122.292 26.7133 116.78 9.96055 103.047 3.03418Z"></path>
<path fill="black" d="M162.427 108.722L115.332 15.3722C108.382 1.63932 91.6294 -3.87301 77.8965 3.05336C64.1636 9.97972 58.6512 26.7324 65.5776 40.4653L112.672 133.815C119.622 147.572 136.375 153.085 150.108 146.158C163.841 139.208 169.353 122.455 162.427 108.722Z"></path>
<path fill="black" d="M408.938 105.384H364.96C364.96 105.384 362.251 105.36 362.323 102.34V94.5749C362.323 94.5749 362.299 91.8666 365.367 91.9385H401.82C411.407 91.9385 419.22 84.1733 419.22 74.5627C419.22 69.7694 417.255 65.4314 414.115 62.2918C410.976 59.1521 406.614 57.1869 401.82 57.1869H364.816C364.265 57.1389 362.299 56.7555 362.323 54.215V46.4258C362.323 46.4258 362.323 43.6697 365.391 43.7416H408.938C420.994 43.7416 430.796 33.9632 430.796 21.884C430.796 15.8444 428.327 10.3799 424.373 6.42544C420.442 2.47094 414.978 0.00239229 408.938 0.00239229H343.653C343.006 0.00239229 342.359 0.0742862 341.712 0.12222C341.161 0.0742862 340.586 0.00239229 340.034 0.00239229C327.715 0.00239229 317.745 11.6262 317.745 25.9343V123.191C317.745 137.499 327.715 149.123 340.034 149.123C340.586 149.123 341.161 149.051 341.712 149.003C342.359 149.051 343.006 149.123 343.653 149.123H408.938C414.978 149.123 420.442 146.654 424.373 142.7C428.327 138.745 430.796 133.281 430.796 127.241C430.796 115.162 420.994 105.384 408.938 105.384Z"></path>
<path fill="black" d="M530.641 86.5508C526.926 94.1243 519.041 98.7738 510.605 98.7738H493.397C491.935 98.7738 490.785 97.6234 490.737 96.1854V52.9975C490.785 51.5834 491.935 50.4091 493.397 50.4091H509.359C526.567 50.4091 539.557 68.3841 530.641 86.5508ZM503.559 0.00716636H468.448C456.153 0.00716636 446.183 11.607 446.183 25.9391V123.196C446.183 137.504 456.153 149.104 468.448 149.104H503.559C544.734 149.104 578.095 115.742 578.095 74.5675C578.095 33.4167 544.734 0.00716636 503.559 0.00716636Z"></path>
<path fill="black" d="M281.251 104.543H228.069C228.069 104.543 225.337 104.519 225.409 101.475V25.9319C225.409 18.7659 222.916 12.2949 218.89 7.59742C214.864 2.89995 209.279 -7.62939e-06 203.12 -7.62939e-06C190.825 -7.62939e-06 180.855 11.6238 180.855 25.9319V123.189C180.855 123.836 180.879 124.459 180.927 125.106C180.879 125.681 180.855 126.232 180.855 126.832C180.855 139.126 190.298 149.121 201.97 149.121H281.251C287.075 149.121 292.372 146.628 296.206 142.602C300.017 138.551 302.39 132.991 302.39 126.832C302.39 114.513 292.923 104.543 281.251 104.543Z"></path>
</svg>
